<svg xmlns="http://www.w3.org/2000/svg" viewBox="0 0 16 16" width="128" height="128" shape-rendering="crispEdges" role="img" aria-label="PerfectPixel">
  <rect x="0" y="0" width="16" height="16" rx="3" fill="#000423"/>
  <g>
    <rect x="3" y="2" width="1" height="1" fill="#03D2BD"/>
    <rect x="3" y="3" width="1" height="1" fill="#03D2BD"/>
    <rect x="3" y="4" width="1" height="1" fill="#03D2BD"/>
    <rect x="3" y="5" width="1" height="1" fill="#03D2BD"/>
    <rect x="3" y="6" width="1" height="1" fill="#03D2BD"/>
    <rect x="3" y="7" width="1" height="1" fill="#03D2BD"/>
    <rect x="3" y="8" width="1" height="1" fill="#03D2BD"/>
    <rect x="3" y="9" width="1" height="1" fill="#03D2BD"/>
    <rect x="3" y="10" width="1" height="1" fill="#03D2BD"/>
    <rect x="4" y="2" width="1" height="1" fill="#03D2BD"/>
    <rect x="4" y="3" width="1" height="1" fill="#03D2BD"/>
    <rect x="4" y="4" width="1" height="1" fill="#03D2BD"/>
    <rect x="4" y="5" width="1" height="1" fill="#03D2BD"/>
    <rect x="4" y="6" width="1" height="1" fill="#03D2BD"/>
    <rect x="4" y="7" width="1" height="1" fill="#03D2BD"/>
    <rect x="4" y="8" width="1" height="1" fill="#03D2BD"/>
    <rect x="4" y="9" width="1" height="1" fill="#03D2BD"/>
    <rect x="4" y="10" width="1" height="1" fill="#03D2BD"/>
    <rect x="5" y="2" width="1" height="1" fill="#03D2BD"/>
    <rect x="5" y="3" width="1" height="1" fill="#03D2BD"/>
    <rect x="5" y="6" width="1" height="1" fill="#03D2BD"/>
    <rect x="5" y="7" width="1" height="1" fill="#03D2BD"/>
    <rect x="6" y="2" width="1" height="1" fill="#03D2BD"/>
    <rect x="6" y="3" width="1" height="1" fill="#03D2BD"/>
    <rect x="6" y="6" width="1" height="1" fill="#03D2BD"/>
    <rect x="6" y="7" width="1" height="1" fill="#03D2BD"/>
    <rect x="7" y="2" width="1" height="1" fill="#03D2BD"/>
    <rect x="7" y="3" width="1" height="1" fill="#03D2BD"/>
    <rect x="7" y="4" width="1" height="1" fill="#03D2BD"/>
    <rect x="7" y="5" width="1" height="1" fill="#03D2BD"/>
    <rect x="8" y="3" width="1" height="1" fill="#03D2BD"/>
    <rect x="8" y="4" width="1" height="1" fill="#03D2BD"/>
    <rect x="8" y="5" width="1" height="1" fill="#03D2BD"/>
    <rect x="7" y="8" width="1" height="1" fill="#FC018A"/>
    <rect x="7" y="9" width="1" height="1" fill="#FC018A"/>
    <rect x="7" y="10" width="1" height="1" fill="#FC018A"/>
    <rect x="7" y="11" width="1" height="1" fill="#FC018A"/>
    <rect x="7" y="12" width="1" height="1" fill="#FC018A"/>
    <rect x="7" y="13" width="1" height="1" fill="#FC018A"/>
    <rect x="7" y="14" width="1" height="1" fill="#FC018A"/>
    <rect x="8" y="7" width="1" height="1" fill="#FC018A"/>
    <rect x="8" y="8" width="1" height="1" fill="#FC018A"/>
    <rect x="8" y="9" width="1" height="1" fill="#FC018A"/>
    <rect x="8" y="10" width="1" height="1" fill="#FC018A"/>
    <rect x="8" y="11" width="1" height="1" fill="#FC018A"/>
    <rect x="8" y="12" width="1" height="1" fill="#FC018A"/>
    <rect x="8" y="13" width="1" height="1" fill="#FC018A"/>
    <rect x="8" y="14" width="1" height="1" fill="#FC018A"/>
    <rect x="9" y="6" width="1" height="1" fill="#FC018A"/>
    <rect x="9" y="7" width="1" height="1" fill="#FC018A"/>
    <rect x="9" y="10" width="1" height="1" fill="#FC018A"/>
    <rect x="9" y="11" width="1" height="1" fill="#FC018A"/>
    <rect x="10" y="6" width="1" height="1" fill="#FC018A"/>
    <rect x="10" y="7" width="1" height="1" fill="#FC018A"/>
    <rect x="10" y="10" width="1" height="1" fill="#FC018A"/>
    <rect x="10" y="11" width="1" height="1" fill="#FC018A"/>
    <rect x="11" y="6" width="1" height="1" fill="#FC018A"/>
    <rect x="11" y="7" width="1" height="1" fill="#FC018A"/>
    <rect x="11" y="8" width="1" height="1" fill="#FC018A"/>
    <rect x="11" y="9" width="1" height="1" fill="#FC018A"/>
    <rect x="11" y="10" width="1" height="1" fill="#FC018A"/>
    <rect x="11" y="11" width="1" height="1" fill="#FC018A"/>
    <rect x="12" y="7" width="1" height="1" fill="#FC018A"/>
    <rect x="12" y="8" width="1" height="1" fill="#FC018A"/>
    <rect x="12" y="9" width="1" height="1" fill="#FC018A"/>
    <rect x="12" y="10" width="1" height="1" fill="#FC018A"/>
    <rect x="7" y="6" width="1" height="1" fill="#FCD2E1"/>
    <rect x="7" y="7" width="1" height="1" fill="#FCD2E1"/>
    <rect x="8" y="6" width="1" height="1" fill="#FCD2E1"/>
  </g>
</svg>
